<?xml version="1.0" standalone="no"?>
<!DOCTYPE svg PUBLIC "-//W3C//DTD SVG 20010904//EN"
 "http://www.w3.org/TR/2001/REC-SVG-20010904/DTD/svg10.dtd">
<svg version="1.0" xmlns="http://www.w3.org/2000/svg"
 width="1000.000000pt" height="1000.000000pt" viewBox="0 0 1000.000000 1000.000000"
 preserveAspectRatio="xMidYMid meet">
<metadata>
Created by potrace 1.14, written by Peter Selinger 2001-2017
</metadata>
<g transform="translate(0.000000,1000.000000) scale(0.100000,-0.100000)"
fill="#000000" stroke="none">
<path d="M5972 9202 c-21 -24 -361 -372 -882 -902 -277 -282 -874 -890 -1040
-1060 -142 -145 -696 -709 -1070 -1090 -91 -92 -311 -317 -490 -500 -179 -182
-463 -472 -632 -643 l-308 -312 5 -130 c3 -71 7 -175 10 -230 3 -55 7 -165 10
-245 3 -80 7 -183 10 -230 2 -47 7 -157 10 -245 3 -88 8 -200 10 -250 2 -49 7
-157 10 -240 3 -82 8 -186 10 -230 2 -44 7 -159 10 -255 9 -216 9 -228 16
-235 3 -3 251 -8 550 -10 299 -3 731 -7 959 -10 390 -4 765 -6 836 -5 27 0 50
18 149 119 l117 118 52 -52 c28 -29 155 -159 281 -290 127 -130 262 -269 300
-309 39 -39 75 -78 82 -86 10 -13 -203 -15 -1877 -14 l-1888 2 0 -399 c0 -296
3 -399 11 -400 16 0 7257 0 7320 0 l47 1 0 399 0 399 -1714 -1 c-1284 -2
-1713 1 -1708 9 6 11 130 144 307 333 39 41 81 86 95 101 52 56 239 257 270
290 27 30 173 186 290 311 19 20 80 86 135 145 55 59 116 124 135 145 19 20
80 85 135 144 55 59 117 126 139 149 21 22 79 85 130 140 50 54 111 120 136
146 25 26 90 96 145 156 55 59 114 122 130 140 187 199 266 284 289 309 16 17
74 80 131 140 56 61 117 126 135 145 18 19 79 85 135 145 57 61 116 124 131
140 36 40 240 258 284 305 19 20 80 85 135 144 55 60 118 127 140 150 22 24
87 94 145 156 58 62 115 123 128 136 12 13 22 26 22 31 0 4 -21 27 -47 51 -27
25 -113 106 -192 181 -195 184 -222 209 -355 335 -64 59 -116 112 -116 115 0
4 49 57 110 117 60 60 110 114 110 119 0 6 -26 35 -57 66 -32 31 -335 337
-673 679 -1055 1067 -1673 1691 -1674 1689 -1 0 -11 -12 -24 -27z m451 -1540
l58 -59 -1791 -1791 -1791 -1791 93 -95 c391 -398 708 -729 708 -737 0 -4
-118 -5 -262 -4 -145 2 -435 4 -645 6 l-383 3 -1 51 c-1 61 -9 277 -24 595
-12 272 -18 413 -19 474 l-2 68 266 270 c146 149 339 346 430 438 91 92 329
335 530 540 201 205 433 441 515 525 83 84 323 329 535 545 212 215 466 474
565 575 99 101 319 325 489 498 l308 315 182 -183 c99 -101 207 -210 239 -243z"/>
</g>
</svg>
